<svg width="111" height="28" viewBox="0 0 111 28" fill="none" xmlns="http://www.w3.org/2000/svg">
<path d="M6.51902 27.4241C5.61037 27.4241 4.79443 27.183 4.07122 26.7009C3.348 26.2373 2.73605 25.5975 2.23537 24.7816C1.73468 23.9657 1.3638 23.0199 1.12273 21.9444C0.900201 20.8688 0.816753 19.7284 0.872385 18.523C0.946561 17.2435 1.14127 15.9269 1.45652 14.5731C1.77177 13.2009 2.19828 11.8657 2.73605 10.5676C3.27383 9.26957 3.89505 8.03639 4.59972 6.86812C5.32294 5.69985 6.11106 4.67993 6.96408 3.80837C7.83564 2.9368 8.76284 2.25067 9.74567 1.74999C10.7285 1.23076 11.7577 0.971141 12.8332 0.971141C13.5379 0.971141 14.1313 1.14731 14.6135 1.49964C15.0956 1.85198 15.4665 2.31558 15.7261 2.89044C16.0043 3.44676 16.1804 4.07726 16.2546 4.78193C16.3288 5.4866 16.3195 6.19127 16.2268 6.89594C16.1526 7.58207 15.995 8.24965 15.7539 8.89869C15.5314 9.52918 15.2532 10.0484 14.9194 10.4564C14.4929 10.9942 14.1035 11.2816 13.7512 11.3187C13.4174 11.3372 13.0929 11.2352 12.7776 11.0127C12.6478 10.9014 12.518 10.7716 12.3882 10.6233C12.2584 10.4935 12.1193 10.3358 11.9709 10.1504C11.8226 9.94642 11.665 9.69608 11.4981 9.39937C11.8504 9.26957 12.1749 9.05631 12.4716 8.75961C12.7683 8.44436 13.0187 8.09202 13.2227 7.7026C13.4452 7.31318 13.6121 6.90521 13.7234 6.4787C13.8532 6.03364 13.9273 5.59786 13.9459 5.17135C13.9644 4.83756 13.9552 4.51304 13.9181 4.19779C13.881 3.864 13.8068 3.57657 13.6955 3.3355C13.5843 3.07588 13.4267 2.8719 13.2227 2.72355C13.0372 2.55665 12.7962 2.4732 12.4995 2.4732C11.7577 2.4732 11.0345 2.76063 10.3298 3.3355C9.62514 3.89182 8.95756 4.64285 8.32706 5.58859C7.71511 6.51579 7.14025 7.58207 6.60247 8.78742C6.08324 9.99278 5.62891 11.2352 5.23949 12.5148C4.85007 13.7943 4.53482 15.0553 4.29375 16.2977C4.05268 17.5402 3.90432 18.6714 3.84869 19.6913C3.77452 20.9708 3.82088 22.0093 3.98777 22.8067C4.15467 23.6041 4.3772 24.2253 4.65535 24.6703C4.95206 25.1339 5.26731 25.4399 5.6011 25.5883C5.93489 25.7552 6.24086 25.8386 6.51902 25.8386C7.03825 25.8386 7.62239 25.5975 8.27143 25.1154C8.92047 24.6332 9.54169 23.9749 10.1351 23.1405C10.7285 22.3245 11.257 21.3788 11.7206 20.3032C12.2027 19.2277 12.5458 18.0965 12.7498 16.9097C12.2862 16.9097 11.8133 16.919 11.3312 16.9375C10.8676 16.9375 10.4225 16.9468 9.99602 16.9653C9.56951 16.9839 9.18935 17.0117 8.85556 17.0488C8.52177 17.0673 8.26216 17.0951 8.07672 17.1322C7.94691 17.0766 7.85419 17.0117 7.79856 16.9375C7.76147 16.8633 7.72438 16.7799 7.68729 16.6872C7.65021 16.613 7.63166 16.5203 7.63166 16.409C7.63166 16.2977 7.65021 16.1957 7.68729 16.103C7.72438 16.0103 7.77074 15.9176 7.82637 15.8249C7.882 15.7136 7.95618 15.6023 8.0489 15.4911C8.64231 15.3798 9.22644 15.2871 9.80131 15.2129C10.3762 15.1387 10.9696 15.0831 11.5815 15.046C12.212 14.9904 12.8796 14.9533 13.5843 14.9347C14.3075 14.8977 15.1142 14.8698 16.0043 14.8513C16.3751 14.8328 16.5977 14.8791 16.6718 14.9904C16.7646 15.1016 16.7367 15.3798 16.5884 15.8249C16.4771 16.1772 16.3288 16.4646 16.1433 16.6872C15.9764 16.9097 15.689 17.0024 15.281 16.9653C15.1512 16.9653 15.0492 16.956 14.9751 16.9375C14.8082 18.0316 14.4558 19.1906 13.9181 20.4145C13.3803 21.6384 12.722 22.7696 11.9431 23.808C11.1643 24.8465 10.302 25.7088 9.35625 26.3949C8.42905 27.081 7.48331 27.4241 6.51902 27.4241ZM31.0382 16.2143C30.4819 17.0302 29.8514 17.8276 29.1467 18.6065C28.4421 19.3668 27.691 20.0529 26.8937 20.6648C26.1148 21.2582 25.3081 21.7404 24.4737 22.1113C23.6577 22.4821 22.8603 22.6676 22.0815 22.6676C21.6735 22.6676 21.2285 22.5656 20.7463 22.3616C20.2827 22.1762 19.8562 21.8795 19.4668 21.4715C19.0774 21.0635 18.7621 20.535 18.5211 19.886C18.2985 19.2369 18.2336 18.4488 18.3263 17.5216C18.4005 16.7613 18.6323 15.9639 19.0217 15.1295C19.4297 14.2764 19.9211 13.4976 20.496 12.7929C21.0894 12.0882 21.7477 11.5041 22.4709 11.0405C23.2127 10.5769 23.9544 10.3451 24.6962 10.3451C25.4009 10.3451 25.9108 10.5213 26.2261 10.8736C26.5413 11.226 26.6804 11.6617 26.6433 12.181C26.5877 12.7558 26.4208 13.2843 26.1426 13.7665C25.883 14.2486 25.5678 14.6844 25.1969 15.0738C24.826 15.4633 24.4273 15.8156 24.0008 16.1308C23.5928 16.4461 23.2034 16.7335 22.8325 16.9931C22.4246 17.2713 22.0351 17.5402 21.6643 17.7998C21.2934 18.0409 20.9689 18.2634 20.6907 18.4674C20.7092 18.931 20.7927 19.3204 20.941 19.6356C21.0894 19.9509 21.2748 20.2105 21.4974 20.4145C21.7199 20.5999 21.9702 20.739 22.2484 20.8317C22.5451 20.9059 22.8418 20.943 23.1385 20.943C23.769 20.943 24.4273 20.7483 25.1134 20.3589C25.7996 19.9509 26.4671 19.4687 27.1162 18.9124C27.7838 18.3376 28.3957 17.7442 28.952 17.1322C29.5269 16.5203 29.9998 15.9918 30.3706 15.5467C30.5005 15.3983 30.6303 15.3149 30.7601 15.2964C30.9084 15.2593 31.0197 15.2778 31.0939 15.352C31.1866 15.4076 31.2329 15.5189 31.2329 15.6858C31.2329 15.8341 31.168 16.0103 31.0382 16.2143ZM23.9173 11.9306C23.6948 11.9306 23.4259 12.0419 23.1107 12.2644C22.814 12.4869 22.5173 12.8115 22.2206 13.238C21.9239 13.6459 21.6457 14.1559 21.3861 14.7679C21.1265 15.3613 20.9318 16.0474 20.802 16.8262C21.0245 16.6593 21.2656 16.4924 21.5252 16.3255C21.7848 16.1401 22.0444 15.9454 22.304 15.7414C23.1014 15.1295 23.6577 14.5917 23.973 14.1281C24.2882 13.6645 24.4644 13.2658 24.5015 12.932C24.5386 12.5797 24.5015 12.3293 24.3902 12.181C24.279 12.0141 24.1213 11.9306 23.9173 11.9306ZM39.8692 14.9626C39.9434 14.8513 40.0361 14.7864 40.1474 14.7679C40.2772 14.7308 40.3792 14.74 40.4534 14.7957C40.5275 14.8513 40.5646 14.944 40.5646 15.0738C40.5832 15.2036 40.5368 15.3798 40.4256 15.6023C40.0547 16.307 39.5633 17.0673 38.9513 17.8832C38.3579 18.6992 37.7274 19.4687 37.0598 20.192C36.3922 20.8966 35.7432 21.4808 35.1127 21.9444C34.4822 22.408 33.9537 22.6398 33.5272 22.6398C32.9152 22.6398 32.4053 22.5192 31.9973 22.2782C31.5894 22.0371 31.2648 21.7404 31.0238 21.388C30.8012 21.0357 30.6436 20.6556 30.5509 20.2476C30.4582 19.8211 30.4304 19.4317 30.4674 19.0793C30.486 18.7826 30.5509 18.2541 30.6622 17.4938C30.7734 16.715 30.9218 15.8249 31.1072 14.8235C31.2926 13.8036 31.4966 12.7187 31.7192 11.569C31.9602 10.4007 32.2106 9.27884 32.4702 8.20329C32.1549 8.24038 31.8397 8.27746 31.5244 8.31455C31.2092 8.35164 30.9218 8.37018 30.6622 8.37018C30.0687 8.37018 29.5124 8.30528 28.9932 8.17547C28.4554 8.02712 28.0567 7.88804 27.7971 7.75823C27.6488 7.68406 27.5839 7.58207 27.6024 7.45226C27.6209 7.30391 27.6766 7.16483 27.7693 7.03502C27.862 6.88667 27.9826 6.76613 28.1309 6.67341C28.2607 6.56215 28.3812 6.50652 28.4925 6.50652C28.8448 6.5436 29.225 6.58069 29.633 6.61778C30.0409 6.63632 30.486 6.63632 30.9681 6.61778C31.3205 6.59924 31.6543 6.57142 31.9695 6.53433C32.3033 6.49724 32.6278 6.45088 32.9431 6.39525C33.1841 5.50514 33.4159 4.73557 33.6385 4.08653C33.8795 3.41894 34.0928 2.95535 34.2782 2.69573C34.3339 2.60301 34.4544 2.52883 34.6398 2.4732C34.8438 2.39903 35.0571 2.35267 35.2796 2.33412C35.5021 2.29703 35.7154 2.29703 35.9194 2.33412C36.1234 2.35267 36.2717 2.41757 36.3644 2.52883C36.4571 2.67719 36.4942 3.05734 36.4757 3.66929C36.4571 4.28124 36.3552 5.06009 36.1697 6.00583C36.9486 6.00583 37.6347 6.05219 38.2281 6.14491C38.84 6.21908 39.3593 6.3118 39.7858 6.42307C40.2123 6.51579 40.5554 6.61778 40.815 6.72904C41.0746 6.82176 41.2693 6.88667 41.3991 6.92375C41.5289 6.96084 41.5938 7.05356 41.5938 7.20191C41.6124 7.35027 41.5846 7.50789 41.5104 7.67479C41.4547 7.82314 41.3528 7.95294 41.2044 8.06421C41.056 8.17547 40.8892 8.21256 40.7037 8.17547C40.5183 8.15693 40.305 8.11984 40.0639 8.06421C39.8414 8.00858 39.5633 7.96222 39.2295 7.92513C38.9142 7.88804 38.5341 7.85095 38.089 7.81386C37.644 7.77678 37.1247 7.75823 36.5313 7.75823C36.4201 7.75823 36.2902 7.76751 36.1419 7.78605C36.0121 7.78605 35.873 7.78605 35.7247 7.78605C35.6505 8.08275 35.5763 8.37946 35.5021 8.67616C35.4465 8.95432 35.3631 9.25102 35.2518 9.56627C35.0107 10.308 34.7326 11.1147 34.4173 11.9863C34.1391 12.7466 33.8054 13.6181 33.4159 14.601C33.0265 15.5838 32.5907 16.6315 32.1086 17.7442C31.9973 18.5416 32.0066 19.1535 32.1364 19.58C32.2848 19.988 32.4609 20.2847 32.6649 20.4701C32.906 20.6741 33.2027 20.7854 33.555 20.8039C33.8332 20.841 34.167 20.7483 34.5564 20.5258C34.9644 20.2847 35.3816 19.9694 35.8081 19.58C36.2346 19.1906 36.6611 18.7641 37.0876 18.3005C37.5327 17.8369 37.9407 17.3826 38.3115 16.9375C38.6824 16.4924 39.0069 16.0937 39.2851 15.7414C39.5633 15.3705 39.758 15.1109 39.8692 14.9626ZM57.9763 12.2088C58.3657 11.4299 58.7552 10.6604 59.1446 9.90006C59.534 9.12121 59.8863 8.398 60.2016 7.73042C60.5168 7.06283 60.7857 6.46943 61.0082 5.9502C61.2308 5.41242 61.3606 4.98591 61.3977 4.67066C61.4348 4.33687 61.4069 4.04944 61.3142 3.80837C61.2215 3.5673 61.0639 3.37258 60.8414 3.22423C60.6374 3.07588 60.387 2.96462 60.0903 2.89044C59.8122 2.79772 59.4969 2.74209 59.1446 2.72355C58.5326 2.68646 57.8001 2.705 56.9471 2.77918C56.1126 2.83481 55.306 2.95535 54.5271 3.14079C53.7483 3.30768 53.0714 3.54875 52.4966 3.864C51.9402 4.17925 51.6435 4.56867 51.6065 5.03227C51.5879 5.29189 51.6343 5.52369 51.7455 5.72767C51.8383 5.89456 52.0052 6.05219 52.2462 6.20054C52.5058 6.34889 52.886 6.40452 53.3867 6.36744C53.4794 6.36744 53.5907 6.35816 53.7205 6.33962C53.8317 6.32108 53.9708 6.30253 54.1377 6.28399C54.3046 6.2469 54.4993 6.20054 54.7218 6.14491L53.3589 7.98076C53.0992 8.35164 52.8211 8.57417 52.5244 8.64834C52.2277 8.72252 51.9588 8.74106 51.7177 8.70398C51.5879 8.68543 51.3283 8.62053 50.9389 8.50926C50.568 8.398 50.1878 8.2311 49.7984 8.00858C49.4275 7.78605 49.103 7.48935 48.8249 7.11847C48.5467 6.72904 48.4354 6.2469 48.4911 5.67204C48.5652 5.00445 48.8527 4.3925 49.3534 3.83618C49.8541 3.26132 50.5495 2.76991 51.4396 2.36194C52.3482 1.95397 53.4238 1.63872 54.6662 1.4162C55.9272 1.19367 57.3458 1.0824 58.9221 1.0824C60.1089 1.0824 61.0546 1.21221 61.7593 1.47183C62.4639 1.7129 62.9739 2.03742 63.2892 2.44539C63.6229 2.83481 63.7806 3.29841 63.762 3.83618C63.762 4.35542 63.6508 4.89319 63.4282 5.44951C63.317 5.70912 63.1501 6.07073 62.9275 6.53433C62.7236 6.97939 62.4732 7.50789 62.1765 8.11984C61.8798 8.71325 61.5646 9.37156 61.2308 10.0948C60.897 10.818 60.5632 11.569 60.2294 12.3479C60.7301 12.385 61.1844 12.4313 61.5924 12.4869C62.0189 12.5426 62.3527 12.5889 62.5938 12.626C62.8719 12.7002 62.9646 12.8207 62.8719 12.9876C62.705 13.3214 62.5381 13.5718 62.3712 13.7387C62.2229 13.9056 62.056 14.0261 61.8705 14.1003C61.6851 14.1559 61.4811 14.1837 61.2586 14.1837C61.0361 14.1652 60.7857 14.1466 60.5076 14.1281C60.3407 14.1281 60.1738 14.1281 60.0069 14.1281C59.84 14.1095 59.6638 14.091 59.4784 14.0725C59.126 14.9069 58.783 15.7321 58.4492 16.5481C58.1339 17.364 57.8372 18.1429 57.5591 18.8846C57.2995 19.6078 57.0677 20.2754 56.8637 20.8874C56.6597 21.4993 56.5206 22.0093 56.4464 22.4172C56.3352 22.9921 56.2517 23.5299 56.1961 24.0306C56.159 24.4571 56.1405 24.9021 56.1405 25.3657C56.1405 25.8293 56.2146 26.2002 56.363 26.4784C55.9736 26.5896 55.6305 26.6824 55.3338 26.7565C55.0556 26.8307 54.8146 26.8863 54.6106 26.9234C54.3881 26.9791 54.2026 27.0254 54.0543 27.0625C53.535 27.1923 53.1641 27.1738 52.9416 27.0069C52.7376 26.8585 52.682 26.4876 52.7747 25.8942C52.8118 25.4863 52.8674 25.0227 52.9416 24.5034C53.0343 24.0027 53.1641 23.4279 53.331 22.7788C53.5165 22.1484 53.7483 21.4437 54.0264 20.6648C54.3231 19.8674 54.694 18.9866 55.1391 18.0223C55.3987 17.466 55.6954 16.854 56.0292 16.1865C56.363 15.5003 56.7153 14.7679 57.0862 13.989C56.2703 13.989 55.3894 14.0446 54.4437 14.1559C53.9245 14.2301 53.4145 14.3135 52.9138 14.4062C52.4873 14.499 52.0237 14.6102 51.523 14.74C51.0409 14.8513 50.5865 14.9811 50.16 15.1295C50.1044 14.9811 50.0673 14.8328 50.0488 14.6844C50.0488 14.5361 50.058 14.397 50.0766 14.2672C50.0951 14.1374 50.1229 14.0076 50.16 13.8777C50.1971 13.7479 50.2527 13.6181 50.3269 13.4883C50.4382 13.2658 50.6144 12.9876 50.8554 12.6538C51.727 12.5426 52.5615 12.4591 53.3589 12.4035C54.1563 12.3479 54.8609 12.3015 55.4729 12.2644C56.1961 12.2273 56.8729 12.2088 57.5034 12.2088C57.5962 12.1902 57.6703 12.1902 57.726 12.2088C57.8001 12.2088 57.8836 12.2088 57.9763 12.2088ZM72.8156 17.5773C72.6301 18.2819 72.3798 18.9402 72.0645 19.5522C71.7493 20.1641 71.3691 20.6927 70.9241 21.1377C70.4976 21.5828 70.0061 21.9258 69.4498 22.1669C68.9121 22.4265 68.3186 22.5563 67.6696 22.5563C66.9093 22.5563 66.3066 22.3894 65.8616 22.0556C65.4351 21.7404 65.1105 21.3417 64.888 20.8595C64.684 20.3774 64.5635 19.8489 64.5264 19.274C64.4708 18.6992 64.443 18.1614 64.443 17.6607C64.443 17.3084 64.4893 16.919 64.582 16.4924C64.6562 16.0659 64.7675 15.6301 64.9158 15.1851C65.0642 14.74 65.2496 14.295 65.4721 13.8499C65.7132 13.4049 65.9914 12.9969 66.3066 12.626C66.4179 12.3108 66.5848 12.0326 66.8073 11.7915C67.0484 11.5505 67.3173 11.3558 67.614 11.2074C67.9292 11.0405 68.263 10.92 68.6154 10.8458C68.9677 10.7531 69.3108 10.7067 69.6445 10.7067C69.7002 10.7067 69.7465 10.716 69.7836 10.7345C69.8393 10.7531 69.8949 10.7716 69.9505 10.7902C70.1916 10.8087 70.4883 10.9014 70.8406 11.0683C71.2115 11.2352 71.5638 11.4856 71.8976 11.8194C72.25 12.1532 72.5467 12.5797 72.7877 13.0989C73.0288 13.5996 73.1494 14.2115 73.1494 14.9347C73.1494 15.0831 73.1401 15.2685 73.1215 15.4911C73.103 15.6951 73.0844 15.8712 73.0659 16.0196C73.4924 15.8527 73.9375 15.6487 74.4011 15.4076C74.8647 15.1665 75.3097 14.9162 75.7362 14.6566C76.1813 14.3784 76.5893 14.1003 76.9601 13.8221C77.331 13.544 77.6277 13.2936 77.8502 13.0711C78.0357 12.9042 78.1933 12.8115 78.3231 12.7929C78.4529 12.7744 78.5456 12.8115 78.6013 12.9042C78.6569 12.9969 78.6662 13.1267 78.6291 13.2936C78.592 13.4605 78.49 13.6459 78.3231 13.8499C78.2304 13.9612 77.9893 14.1837 77.5999 14.5175C77.229 14.8513 76.784 15.2129 76.2647 15.6023C75.7455 15.9918 75.1799 16.3719 74.568 16.7428C73.956 17.1137 73.3719 17.3918 72.8156 17.5773ZM68.1147 13.3492C68.059 13.5161 68.0312 13.6923 68.0312 13.8777C68.0312 14.1744 68.0498 14.4897 68.0868 14.8235C68.1239 15.1387 68.2167 15.4262 68.365 15.6858C68.5134 15.9454 68.7452 16.1679 69.0604 16.3534C69.3942 16.5203 69.8485 16.6037 70.4234 16.6037C70.5161 16.6037 70.6088 16.6037 70.7015 16.6037C70.7943 16.5852 70.887 16.5666 70.9797 16.5481C71.0353 16.307 71.0817 16.0937 71.1188 15.9083C71.1744 15.7043 71.2022 15.5282 71.2022 15.3798C71.2393 15.0275 71.2393 14.6659 71.2022 14.295C71.1651 13.9241 71.091 13.5903 70.9797 13.2936C70.887 12.9784 70.7572 12.728 70.5903 12.5426C70.4419 12.3386 70.2565 12.2366 70.034 12.2366C69.6816 12.2366 69.3386 12.3386 69.0048 12.5426C68.6895 12.728 68.3928 12.9969 68.1147 13.3492ZM66.3344 18.2448C66.3344 18.5786 66.353 18.9124 66.3901 19.2462C66.4272 19.5615 66.5013 19.8489 66.6126 20.1085C66.7239 20.3496 66.8722 20.5536 67.0577 20.7205C67.2431 20.8688 67.4842 20.943 67.7809 20.943C68.1147 20.943 68.4206 20.8688 68.6988 20.7205C68.977 20.5536 69.2273 20.3496 69.4498 20.1085C69.6724 19.8489 69.8671 19.5615 70.034 19.2462C70.2194 18.9124 70.377 18.5694 70.5068 18.217C70.377 18.2356 70.2472 18.2541 70.1174 18.2727C70.0061 18.2727 69.8763 18.2727 69.728 18.2727C69.0233 18.2727 68.4114 18.0687 67.8921 17.6607C67.3914 17.2342 67.002 16.6964 66.7239 16.0474C66.6126 16.4368 66.5199 16.817 66.4457 17.1878C66.3715 17.5587 66.3344 17.9111 66.3344 18.2448ZM84.5951 17.5773C84.4096 18.2819 84.1593 18.9402 83.844 19.5522C83.5288 20.1641 83.1486 20.6927 82.7036 21.1377C82.2771 21.5828 81.7857 21.9258 81.2293 22.1669C80.6916 22.4265 80.0982 22.5563 79.4491 22.5563C78.6888 22.5563 78.0861 22.3894 77.6411 22.0556C77.2146 21.7404 76.89 21.3417 76.6675 20.8595C76.4635 20.3774 76.343 19.8489 76.3059 19.274C76.2503 18.6992 76.2225 18.1614 76.2225 17.6607C76.2225 17.3084 76.2688 16.919 76.3615 16.4924C76.4357 16.0659 76.547 15.6301 76.6953 15.1851C76.8437 14.74 77.0291 14.295 77.2517 13.8499C77.4927 13.4049 77.7709 12.9969 78.0861 12.626C78.1974 12.3108 78.3643 12.0326 78.5868 11.7915C78.8279 11.5505 79.0968 11.3558 79.3935 11.2074C79.7087 11.0405 80.0425 10.92 80.3949 10.8458C80.7472 10.7531 81.0903 10.7067 81.424 10.7067C81.4797 10.7067 81.526 10.716 81.5631 10.7345C81.6188 10.7531 81.6744 10.7716 81.73 10.7902C81.9711 10.8087 82.2678 10.9014 82.6201 11.0683C82.991 11.2352 83.3433 11.4856 83.6771 11.8194C84.0295 12.1532 84.3262 12.5797 84.5672 13.0989C84.8083 13.5996 84.9289 14.2115 84.9289 14.9347C84.9289 15.0831 84.9196 15.2685 84.901 15.4911C84.8825 15.6951 84.864 15.8712 84.8454 16.0196C85.2719 15.8527 85.717 15.6487 86.1806 15.4076C86.6442 15.1665 87.0892 14.9162 87.5157 14.6566C87.9608 14.3784 88.3688 14.1003 88.7396 13.8221C89.1105 13.544 89.4072 13.2936 89.6298 13.0711C89.8152 12.9042 89.9728 12.8115 90.1026 12.7929C90.2324 12.7744 90.3251 12.8115 90.3808 12.9042C90.4364 12.9969 90.4457 13.1267 90.4086 13.2936C90.3715 13.4605 90.2695 13.6459 90.1026 13.8499C90.0099 13.9612 89.7688 14.1837 89.3794 14.5175C89.0085 14.8513 88.5635 15.2129 88.0442 15.6023C87.525 15.9918 86.9594 16.3719 86.3475 16.7428C85.7355 17.1137 85.1514 17.3918 84.5951 17.5773ZM79.8942 13.3492C79.8385 13.5161 79.8107 13.6923 79.8107 13.8777C79.8107 14.1744 79.8293 14.4897 79.8664 14.8235C79.9034 15.1387 79.9962 15.4262 80.1445 15.6858C80.2929 15.9454 80.5247 16.1679 80.8399 16.3534C81.1737 16.5203 81.628 16.6037 82.2029 16.6037C82.2956 16.6037 82.3883 16.6037 82.4811 16.6037C82.5738 16.5852 82.6665 16.5666 82.7592 16.5481C82.8148 16.307 82.8612 16.0937 82.8983 15.9083C82.9539 15.7043 82.9817 15.5282 82.9817 15.3798C83.0188 15.0275 83.0188 14.6659 82.9817 14.295C82.9447 13.9241 82.8705 13.5903 82.7592 13.2936C82.6665 12.9784 82.5367 12.728 82.3698 12.5426C82.2214 12.3386 82.036 12.2366 81.8135 12.2366C81.4611 12.2366 81.1181 12.3386 80.7843 12.5426C80.469 12.728 80.1723 12.9969 79.8942 13.3492ZM78.1139 18.2448C78.1139 18.5786 78.1325 18.9124 78.1696 19.2462C78.2067 19.5615 78.2808 19.8489 78.3921 20.1085C78.5034 20.3496 78.6517 20.5536 78.8372 20.7205C79.0226 20.8688 79.2637 20.943 79.5604 20.943C79.8942 20.943 80.2001 20.8688 80.4783 20.7205C80.7565 20.5536 81.0068 20.3496 81.2293 20.1085C81.4519 19.8489 81.6466 19.5615 81.8135 19.2462C81.9989 18.9124 82.1565 18.5694 82.2863 18.217C82.1565 18.2356 82.0267 18.2541 81.8969 18.2727C81.7857 18.2727 81.6558 18.2727 81.5075 18.2727C80.8028 18.2727 80.1909 18.0687 79.6716 17.6607C79.171 17.2342 78.7815 16.6964 78.5034 16.0474C78.3921 16.4368 78.2994 16.817 78.2252 17.1878C78.151 17.5587 78.1139 17.9111 78.1139 18.2448ZM96.9865 16.6872C96.8938 17.262 96.8011 17.8091 96.7083 18.3283C96.6342 18.8475 96.5878 19.2648 96.5693 19.58C96.5507 20.0436 96.6342 20.3774 96.8196 20.5814C97.0051 20.7854 97.209 20.8874 97.4316 20.8874C97.6912 20.8874 98.0064 20.7576 98.3773 20.4979C98.7667 20.2383 99.1747 19.9138 99.6012 19.5244C100.028 19.135 100.454 18.7084 100.881 18.2448C101.307 17.7812 101.697 17.3455 102.049 16.9375C102.42 16.511 102.726 16.1401 102.967 15.8249C103.227 15.5096 103.403 15.3056 103.495 15.2129C103.607 15.1016 103.718 15.0367 103.829 15.0182C103.959 14.9997 104.061 15.0182 104.135 15.0738C104.209 15.1295 104.246 15.2315 104.246 15.3798C104.246 15.5282 104.172 15.7136 104.024 15.9361C103.801 16.2885 103.514 16.7057 103.162 17.1878C102.809 17.6514 102.42 18.1336 101.993 18.6343C101.567 19.135 101.113 19.6264 100.63 20.1085C100.167 20.5907 99.6939 21.0172 99.2118 21.388C98.7482 21.7589 98.2939 22.0556 97.8488 22.2782C97.4223 22.5192 97.0329 22.6398 96.6805 22.6398C96.4209 22.6398 96.1706 22.5656 95.9295 22.4172C95.707 22.2689 95.503 22.0742 95.3176 21.8331C95.1321 21.592 94.9838 21.3231 94.8725 21.0264C94.7798 20.7297 94.7427 20.433 94.7612 20.1363C94.7798 20.0065 94.8076 19.784 94.8447 19.4687C94.0658 20.3403 93.2777 21.0357 92.4803 21.5549C91.7015 22.0556 90.9504 22.306 90.2272 22.306C89.9676 22.306 89.6895 22.2411 89.3928 22.1113C89.0961 21.9815 88.8272 21.7682 88.5861 21.4715C88.3636 21.1748 88.1781 20.7854 88.0298 20.3032C87.8814 19.8211 87.8258 19.2369 87.8629 18.5508C87.9185 17.4753 88.1318 16.4554 88.5026 15.4911C88.8735 14.5268 89.3371 13.6923 89.8934 12.9876C90.4683 12.2644 91.1081 11.6988 91.8127 11.2909C92.536 10.8643 93.2592 10.6511 93.9824 10.6511C94.2976 10.6511 94.5851 10.7345 94.8447 10.9014C95.1043 11.0498 95.3268 11.2538 95.5123 11.5134C95.6977 11.7545 95.8461 12.0233 95.9573 12.32C96.0871 12.6168 96.1798 12.8949 96.2355 13.1545C96.3653 12.6168 96.4858 12.0882 96.5971 11.569C96.7083 11.0498 96.8196 10.5584 96.9309 10.0948C97.1163 9.40865 97.311 8.66689 97.515 7.8695C97.7005 7.18337 97.9137 6.39525 98.1548 5.50514C98.3959 4.61503 98.6647 3.67856 98.9614 2.69573C99.1469 2.54738 99.323 2.43611 99.4899 2.36194C99.6568 2.28776 99.8145 2.23213 99.9628 2.19504C100.13 2.13941 100.287 2.1116 100.436 2.1116C100.621 2.1116 100.788 2.13941 100.936 2.19504C101.085 2.23213 101.205 2.35267 101.298 2.55665C101.409 2.74209 101.483 3.02952 101.521 3.41894C101.558 3.80837 101.558 4.33687 101.521 5.00445C101.483 5.82039 101.335 6.7105 101.075 7.67479C100.834 8.63907 100.51 9.64045 100.102 10.6789C99.6939 11.6988 99.2211 12.728 98.6833 13.7665C98.1641 14.7864 97.5985 15.76 96.9865 16.6872ZM95.3454 17.0488C95.4195 16.6964 95.4844 16.3441 95.5401 15.9918C95.6143 15.6394 95.6977 15.2778 95.7904 14.9069C95.7533 14.9255 95.7162 14.944 95.6792 14.9626C95.6606 14.9811 95.6328 14.9997 95.5957 15.0182C95.3917 15.1109 95.2526 15.1109 95.1785 15.0182C95.1043 14.9069 95.0672 14.74 95.0672 14.5175C95.0672 14.4062 95.0579 14.2115 95.0394 13.9334C95.0208 13.6367 94.9652 13.34 94.8725 13.0433C94.7983 12.728 94.6778 12.4591 94.5109 12.2366C94.344 11.9955 94.1122 11.875 93.8155 11.875C93.389 11.875 92.9532 12.0975 92.5081 12.5426C92.0631 12.9691 91.6458 13.4976 91.2564 14.1281C90.867 14.74 90.5425 15.3983 90.2829 16.103C90.0232 16.8077 89.8749 17.4382 89.8378 17.9945C89.8007 18.8846 89.912 19.5244 90.1716 19.9138C90.4312 20.3032 90.7836 20.4979 91.2286 20.4979C91.5624 20.4979 91.924 20.3681 92.3134 20.1085C92.7214 19.8489 93.1108 19.5337 93.4817 19.1628C93.8711 18.7919 94.2235 18.4117 94.5387 18.0223C94.8725 17.6329 95.1414 17.3084 95.3454 17.0488ZM108.46 1.11022C108.645 1.07313 108.84 1.05459 109.044 1.05459C109.211 1.05459 109.387 1.07313 109.573 1.11022C109.777 1.14731 109.962 1.22148 110.129 1.33275L105.901 16.9931C105.845 17.1971 105.678 17.4011 105.4 17.6051C105.122 17.8091 104.825 17.976 104.51 18.1058C104.213 18.217 103.945 18.2819 103.704 18.3005C103.481 18.3005 103.388 18.2078 103.425 18.0223C103.5 17.7256 103.666 17.0024 103.926 15.8527C104.037 15.352 104.176 14.74 104.343 14.0168C104.51 13.2751 104.705 12.385 104.927 11.3465C105.168 10.308 105.447 9.10267 105.762 7.73042C106.077 6.33962 106.439 4.75411 106.847 2.97389C106.865 2.84408 106.884 2.71427 106.902 2.58447C106.921 2.49175 106.921 2.38975 106.902 2.27849C106.902 2.16723 106.884 2.08378 106.847 2.02815C106.995 1.86125 107.162 1.72217 107.347 1.61091C107.533 1.4811 107.709 1.37911 107.876 1.30493C108.08 1.23076 108.275 1.16585 108.46 1.11022ZM104.176 19.886C104.659 19.8118 105.048 19.8582 105.345 20.0251C105.641 20.1734 105.771 20.4609 105.734 20.8874C105.716 21.1284 105.614 21.3602 105.428 21.5828C105.243 21.7867 105.02 21.9722 104.761 22.1391C104.519 22.306 104.26 22.4358 103.982 22.5285C103.722 22.6212 103.49 22.6676 103.286 22.6676C102.897 22.6676 102.563 22.5841 102.285 22.4172C102.007 22.2503 101.886 21.9815 101.923 21.6106C101.942 21.3695 102.025 21.1562 102.174 20.9708C102.303 20.7668 102.47 20.5907 102.674 20.4423C102.897 20.294 103.138 20.1734 103.398 20.0807C103.657 19.988 103.917 19.9231 104.176 19.886Z" fill="white"/>
</svg>
